<svg width="24" height="24" viewBox="0 0 24 24" fill="none" xmlns="http://www.w3.org/2000/svg">
<path fill-rule="evenodd" clip-rule="evenodd" d="M11.9902 2C6.4702 2 2.0002 6.48 2.0002 12C2.0002 17.52 6.4702 22 11.9902 22C17.5202 22 22.0002 17.52 22.0002 12C22.0002 6.48 17.5202 2 11.9902 2ZM12.0004 20C7.58039 20 4.00039 16.42 4.00039 12C4.00039 7.58 7.58039 4 12.0004 4C16.4204 4 20.0004 7.58 20.0004 12C20.0004 16.42 16.4204 20 12.0004 20ZM11.0002 7H12.5002V12.25L17.0002 14.92L16.2502 16.15L11.0002 13V7Z" fill="#2F80ED"/>
</svg>
