<svg width="20" height="20" viewBox="0 0 20 20" fill="none" xmlns="http://www.w3.org/2000/svg">
<g id="option-vertical">
<path id="icon/navigation/more_vert_24px" fill-rule="evenodd" clip-rule="evenodd" d="M13.5 9.75C13.5 10.7125 14.2875 11.5 15.25 11.5C16.2125 11.5 17 10.7125 17 9.75C17 8.7875 16.2125 8 15.25 8C14.2875 8 13.5 8.7875 13.5 9.75ZM11.75 9.75C11.75 8.7875 10.9625 8 10 8C9.0375 8 8.25 8.7875 8.25 9.75C8.25 10.7125 9.0375 11.5 10 11.5C10.9625 11.5 11.75 10.7125 11.75 9.75ZM4.75 8C5.7125 8 6.5 8.7875 6.5 9.75C6.5 10.7125 5.7125 11.5 4.75 11.5C3.7875 11.5 3 10.7125 3 9.75C3 8.7875 3.7875 8 4.75 8Z" fill="#828282"/>
</g>
</svg>
