<svg width="25" height="24" viewBox="0 0 25 24" fill="none" xmlns="http://www.w3.org/2000/svg">
<g id="option-icon">
<path id="icon/navigation/more_horiz_24px" fill-rule="evenodd" clip-rule="evenodd" d="M6.19299 10C5.09299 10 4.19299 10.9 4.19299 12C4.19299 13.1 5.09299 14 6.19299 14C7.29299 14 8.19299 13.1 8.19299 12C8.19299 10.9 7.29299 10 6.19299 10ZM18.193 10C17.093 10 16.193 10.9 16.193 12C16.193 13.1 17.093 14 18.193 14C19.293 14 20.193 13.1 20.193 12C20.193 10.9 19.293 10 18.193 10ZM10.193 12C10.193 10.9 11.093 10 12.193 10C13.293 10 14.193 10.9 14.193 12C14.193 13.1 13.293 14 12.193 14C11.093 14 10.193 13.1 10.193 12Z" fill="#4F4F4F"/>
</g>
</svg>
