<svg width="24" height="24" viewBox="0 0 24 24" fill="none" xmlns="http://www.w3.org/2000/svg">
<path fill-rule="evenodd" clip-rule="evenodd" d="M12 2C9.2375 2 7 4.2375 7 7C7 9.7625 9.2375 12 12 12C14.7625 12 17 9.7625 17 7C17 4.2375 14.7625 2 12 2ZM14.5 7C14.5 5.625 13.375 4.5 12 4.5C10.625 4.5 9.5 5.625 9.5 7C9.5 8.375 10.625 9.5 12 9.5C13.375 9.5 14.5 8.375 14.5 7ZM19.5 19.5C19.25 18.6125 15.375 17 12 17C8.6375 17 4.7875 18.6 4.5 19.5H19.5ZM2 19.5C2 16.175 8.6625 14.5 12 14.5C15.3375 14.5 22 16.175 22 19.5V22H2V19.5Z" fill="black" fill-opacity="0.54"/>
</svg>
