<svg width="24" height="24" viewBox="0 0 24 24" fill="none" xmlns="http://www.w3.org/2000/svg">
<path fill-rule="evenodd" clip-rule="evenodd" d="M14.2952 2.21007C14.9079 2.593 15.0734 3.36908 14.665 3.94348L9.82469 10.75H16.6667C17.1584 10.75 17.6102 11.0037 17.8422 11.4102C18.0743 11.8166 18.0488 12.3098 17.7761 12.6934L11.5538 21.4432C11.1454 22.0177 10.3175 22.1729 9.70484 21.7899C9.09214 21.407 8.92658 20.6309 9.33505 20.0565L14.1753 13.25H7.33333C6.84161 13.25 6.38979 12.9963 6.15777 12.5898C5.92574 12.1834 5.95117 11.6902 6.22393 11.3066L12.4462 2.55675C12.8546 1.98235 13.6825 1.82713 14.2952 2.21007Z" fill="white"/>
</svg>
