<svg width="24" height="24" viewBox="0 0 24 24" fill="none" xmlns="http://www.w3.org/2000/svg">
<path fill-rule="evenodd" clip-rule="evenodd" d="M15.721 13.9497H16.5792L22 19.3814L20.3814 21L14.9497 15.5792V14.721L14.6564 14.4168C13.418 15.4814 11.8102 16.1224 10.0612 16.1224C6.16124 16.1224 3 12.9611 3 9.06118C3 5.16124 6.16124 2 10.0612 2C13.9611 2 17.1224 5.16124 17.1224 9.06118C17.1224 10.8102 16.4814 12.418 15.4168 13.6564L15.721 13.9497ZM5.17266 9.0612C5.17266 11.7662 7.3562 13.9497 10.0612 13.9497C12.7661 13.9497 14.9497 11.7662 14.9497 9.0612C14.9497 6.35622 12.7661 4.17269 10.0612 4.17269C7.3562 4.17269 5.17266 6.35622 5.17266 9.0612Z" fill="#333333"/>
</svg>
