<svg width="24" height="24" viewBox="0 0 24 24" fill="none" xmlns="http://www.w3.org/2000/svg">
<path fill-rule="evenodd" clip-rule="evenodd" d="M3.81818 6H20.1818C21.1818 6 22 6.63529 22 7.41176V16.5882C22 17.3647 21.1818 18 20.1818 18H3.81818C2.81818 18 2 17.3647 2 16.5882V7.41176C2 6.63529 2.81818 6 3.81818 6ZM3.81818 7.41176V16.5882H11.0909V7.41176H3.81818ZM20.1818 16.5882H12.9091V7.41176H20.1818V16.5882ZM19.2727 9.88235H13.8182V10.9412H19.2727V9.88235ZM13.8182 11.6471H19.2727V12.7059H13.8182V11.6471ZM19.2727 13.4118H13.8182V14.4706H19.2727V13.4118Z" fill="white"/>
</svg>
