<svg width="24" height="24" viewBox="0 0 24 24" fill="none" xmlns="http://www.w3.org/2000/svg">
<path fill-rule="evenodd" clip-rule="evenodd" d="M2.18182 5H21.8182C23.0182 5 24 5.74118 24 6.64706V17.3529C24 18.2588 23.0182 19 21.8182 19H2.18182C0.981818 19 0 18.2588 0 17.3529V6.64706C0 5.74118 0.981818 5 2.18182 5ZM2.18182 6.64706V17.3529H10.9091V6.64706H2.18182ZM21.8182 17.3529H13.0909V6.64706H21.8182V17.3529ZM20.7273 9.52941H14.1818V10.7647H20.7273V9.52941ZM14.1818 11.5882H20.7273V12.8235H14.1818V11.5882ZM20.7273 13.6471H14.1818V14.8824H20.7273V13.6471Z" fill="#F8B76B"/>
</svg>
